<svg
                width="51"
                height="50"
                viewBox="0 0 51 50"
                fill="none"
                xmlns="http://www.w3.org/2000/svg"
              >
                <g clip-path="url(#clip0_1_1727)">
                  <path
                    d="M36.4375 15.625C36.0143 15.625 35.6481 15.4704 35.3389 15.1611C35.0296 14.8519 34.875 14.4857 34.875 14.0625C34.875 13.6393 35.0296 13.2731 35.3389 12.9639C35.6481 12.6546 36.0143 12.5 36.4375 12.5C36.8607 12.5 37.2269 12.6546 37.5361 12.9639C37.8454 13.2731 38 13.6393 38 14.0625C38 14.4857 37.8454 14.8519 37.5361 15.1611C37.2269 15.4704 36.8607 15.625 36.4375 15.625ZM50.5 12.5V43.75H6.75V37.5H0.5V6.25H44.25V12.5H50.5ZM38.9033 34.375L30.1875 25.6348L26.1348 29.6875L30.8467 34.375H38.9033ZM3.625 9.375V22.7783L11.4375 14.9902L23.9375 27.4902L30.1875 21.2402L41.125 32.1533V9.375H3.625ZM26.4033 34.375L11.4375 19.3848L3.625 27.2217V34.375H26.4033ZM47.375 15.625H44.25V37.5H9.875V40.625H47.375V15.625Z"
                    fill="#111111"
                  />
                </g>
                <defs>
                  <clipPath id="clip0_1_1727">
                    <rect
                      width="50"
                      height="50"
                      fill="white"
                      transform="translate(0.5)"
                    />
                  </clipPath>
                </defs>
              </svg>